# xmcd CD database file
#
# Track frame offsets:
#	150
#	12660
#	26380
#	40610
#	56747
#	70522
#	85745
#	101047
#	118107
#	131385
#	147970
#	159650
#
# Disc length: 2287 seconds
#
# Revision: 0
# Processed by: cddbd v1.5.1PL0 Copyright (c) Steve Scherf et al.
# Submitted via: CDex 1.51
#
DISCID=9a08ed0c
DTITLE=Billy Troy - Feel In The Beat
DYEAR=1900
DGENRE=Country
TTITLE0=Baby's Got A Gun
TTITLE1=I Always Fall In Love (With A Broken Heart)
TTITLE2=Do It Like Elvis
TTITLE3=Under The Moon
TTITLE4=Feel The Beat
TTITLE5=The Buck Stops Here
TTITLE6=She Don't Love Me Anymore
TTITLE7=Coconut Dreams
TTITLE8=Keep Your Boots Crossed
TTITLE9=He Made You Mine
TTITLE10=Nothing Has Changed
TTITLE11=Behave
EXTD=
EXTT0=
EXTT1=
EXTT2=
EXTT3=
EXTT4=
EXTT5=
EXTT6=
EXTT7=
EXTT8=
EXTT9=
EXTT10=
EXTT11=
PLAYORDER=
